<svg width="4096" height="2731"
    xmlns="http://www.w3.org/2000/svg">
    <path
        d="M1200.1 1259.65c.8-2.8 7.34-6.5 10.5-8 371.84-240.33 1117.3-722.2 1124.5-727 7.2-4.8 10.67-2 11.5 0 90.17 152 271.9 458.2 277.5 467 0 6-23 28.5-29 48.5s-1 53.5-5.5 64.5-7.5 25-10 37c-2 9.6-1.83 28.33-1.5 36.5-.5 9-15 26.5-15.5 39-.18 4.5 2 27 6.5 41-5.2 6.8-13.5 26.17-17 35-32.67 18-105.2 58-134 74-36 20-34.5 24.5-36 27-1.2 2-1.83 5.17-2 6.5-.5 1-6.5 5.5-4 6.5 2 .8 5.83 0 7.5-.5.5.83 6 1.5 24-2.5s103.17-50 143.5-72.5c6 2.5 14 5.5 26.5 4.5.8 8 6 19.67 8.5 24.5.5 3 11.5 7.5 15-1 15.6.4 27.83-9.17 32-14 20.8-20.8 22-54 22-69 .33-1.33 2.5-3.8 8.5-3 11 20.5 66.5 55 70 58.5s26.5 18 36 22.5c7.6 3.6 32.5 15.5 44 21-326.17 251.33-979.6 755-984 759-5.5 5-11 6-15.5 0s-64.5-87-73-100.5-77.5-73-89-88-26.5-31-37-48.5-38-48.5-46.5-58.5-350-546.5-356.5-555.5-13-20.5-12-24Z"
        fill="#000000"
    />
</svg>