<svg xmlns="http://www.w3.org/2000/svg" width="4096" height="2731">
  <path fill="#000000"
    d="m2567,598c-20.64-25.08-48.86-35.85-63-37-197-16-471-40-577-49-8.47-.72-33.61-2.26-62,9,0,0-73,34-89,91-31.41,111.9-352.05,1399.76-363,1447-3.84,16.55-23,61,9,113,24.43,39.7,70.47,44.01,96,47,290,34,355,42,502,59,60.13,6.95,99,22,155-18,44-32,54.54-68.23,60-83,0,0,322-1354,356-1513,2.53-11.84-3.61-41.23-24-66Zm-265.32,19.87c-1.9,23.47-27.1,34.1-39.49,33.33-11.45-.71-156.04-14.71-171.55-16.21,2.65,0-22.96-5.6-17.35-36.47,3.1-17.04,30.19-28.65,37.16-27.87,6.97.77,163.15,16.01,169.47,16.29,17.11.74,22.82,17.77,21.76,30.93Z" />
</svg>